<svg width="1280" height="640" viewBox="0 0 1280 640" fill="none" xmlns="http://www.w3.org/2000/svg">
  <defs>
    <linearGradient id="bg" x1="92" y1="36" x2="1188" y2="628" gradientUnits="userSpaceOnUse">
      <stop stop-color="#17181B"/>
      <stop offset="1" stop-color="#08090B"/>
    </linearGradient>
    <radialGradient id="glowA" cx="0" cy="0" r="1" gradientUnits="userSpaceOnUse" gradientTransform="translate(204 154) rotate(34.8) scale(442 302)">
      <stop stop-color="#FF8A3D" stop-opacity="0.78"/>
      <stop offset="1" stop-color="#FF8A3D" stop-opacity="0"/>
    </radialGradient>
    <radialGradient id="glowB" cx="0" cy="0" r="1" gradientUnits="userSpaceOnUse" gradientTransform="translate(1128 552) rotate(-143.5) scale(396 286)">
      <stop stop-color="#E85422" stop-opacity="0.5"/>
      <stop offset="1" stop-color="#E85422" stop-opacity="0"/>
    </radialGradient>
    <linearGradient id="panel" x1="796" y1="108" x2="1128" y2="486" gradientUnits="userSpaceOnUse">
      <stop stop-color="#171A20" stop-opacity="0.94"/>
      <stop offset="1" stop-color="#0C0E12" stop-opacity="0.94"/>
    </linearGradient>
    <linearGradient id="card" x1="986" y1="166" x2="986" y2="398" gradientUnits="userSpaceOnUse">
      <stop stop-color="#FFAB5E"/>
      <stop offset="1" stop-color="#E85422"/>
    </linearGradient>
    <linearGradient id="pocket" x1="986" y1="360" x2="986" y2="520" gradientUnits="userSpaceOnUse">
      <stop stop-color="#FFF1DE"/>
      <stop offset="1" stop-color="#E5C19A"/>
    </linearGradient>
    <linearGradient id="chip" x1="0" y1="0" x2="162" y2="42" gradientUnits="userSpaceOnUse">
      <stop stop-color="#FFFFFF" stop-opacity="0.12"/>
      <stop offset="1" stop-color="#FFFFFF" stop-opacity="0.03"/>
    </linearGradient>
    <filter id="shadow" x="748" y="76" width="452" height="504" filterUnits="userSpaceOnUse" color-interpolation-filters="sRGB">
      <feFlood flood-opacity="0" result="BackgroundImageFix"/>
      <feColorMatrix in="SourceAlpha" type="matrix" values="0 0 0 0 0 0 0 0 0 0 0 0 0 0 0 0 0 0 127 0" result="hardAlpha"/>
      <feOffset dy="22"/>
      <feGaussianBlur stdDeviation="22"/>
      <feComposite in2="hardAlpha" operator="out"/>
      <feColorMatrix type="matrix" values="0 0 0 0 0.0156863 0 0 0 0 0.0196078 0 0 0 0 0.027451 0 0 0 0.42 0"/>
      <feBlend mode="normal" in2="BackgroundImageFix" result="effect1_dropShadow_1_1"/>
      <feBlend mode="normal" in="SourceGraphic" in2="effect1_dropShadow_1_1" result="shape"/>
    </filter>
  </defs>

  <rect width="1280" height="640" rx="40" fill="url(#bg)"/>
  <rect width="1280" height="640" rx="40" fill="url(#glowA)"/>
  <rect width="1280" height="640" rx="40" fill="url(#glowB)"/>

  <path d="M0 112L178 0H352L0 246V112Z" fill="#FF9B3F" fill-opacity="0.84"/>
  <path d="M1012 640L1280 470V640H1012Z" fill="#E46D2B" fill-opacity="0.52"/>
  <path d="M886 640L1280 382V470L1012 640H886Z" fill="#C65224" fill-opacity="0.22"/>

  <rect x="88" y="102" width="162" height="42" rx="21" fill="url(#chip)" stroke="#FFFFFF" stroke-opacity="0.12"/>
  <text x="121" y="129" fill="#FFD5AE" font-family="ui-sans-serif, -apple-system, BlinkMacSystemFont, 'Segoe UI', sans-serif" font-size="18" font-weight="700" letter-spacing="0.16em">GITHUB OVERVIEW</text>

  <text x="88" y="248" fill="#FFF7EF" font-family="ui-sans-serif, -apple-system, BlinkMacSystemFont, 'Segoe UI', sans-serif" font-size="94" font-weight="800" letter-spacing="-0.05em">CodexPocket</text>
  <text x="88" y="314" fill="#F1D7BD" font-family="ui-sans-serif, -apple-system, BlinkMacSystemFont, 'Segoe UI', sans-serif" font-size="30" font-weight="600">Control the Codex environment running on your Mac from iPhone.</text>
  <text x="88" y="360" fill="#C8B29A" font-family="ui-sans-serif, -apple-system, BlinkMacSystemFont, 'Segoe UI', sans-serif" font-size="24" font-weight="500">Same-LAN today. Mac stays live. iPhone keeps the thread moving.</text>

  <rect x="88" y="420" width="176" height="50" rx="25" fill="#FFFFFF" fill-opacity="0.06" stroke="#FFFFFF" stroke-opacity="0.14"/>
  <text x="124" y="452" fill="#FCE5CA" font-family="ui-sans-serif, -apple-system, BlinkMacSystemFont, 'Segoe UI', sans-serif" font-size="22" font-weight="700">iPhone companion</text>

  <rect x="282" y="420" width="152" height="50" rx="25" fill="#FFFFFF" fill-opacity="0.06" stroke="#FFFFFF" stroke-opacity="0.14"/>
  <text x="322" y="452" fill="#FFD5AE" font-family="ui-sans-serif, -apple-system, BlinkMacSystemFont, 'Segoe UI', sans-serif" font-size="22" font-weight="700">Docs + Releases</text>

  <rect x="452" y="420" width="144" height="50" rx="25" fill="#FFFFFF" fill-opacity="0.06" stroke="#FFFFFF" stroke-opacity="0.14"/>
  <text x="492" y="452" fill="#FCE5CA" font-family="ui-sans-serif, -apple-system, BlinkMacSystemFont, 'Segoe UI', sans-serif" font-size="22" font-weight="700">Same-LAN</text>

  <text x="88" y="540" fill="#8E745D" font-family="ui-sans-serif, -apple-system, BlinkMacSystemFont, 'Segoe UI', sans-serif" font-size="18" font-weight="600" letter-spacing="0.12em">HOST  PROJECTS  THREADS  FOLLOW-UPS</text>

  <g filter="url(#shadow)">
    <rect x="792" y="98" width="364" height="416" rx="40" fill="url(#panel)" stroke="#FFFFFF" stroke-opacity="0.08"/>
  </g>

  <rect x="834" y="128" width="96" height="34" rx="17" fill="#FFFFFF" fill-opacity="0.06" stroke="#FFFFFF" stroke-opacity="0.12"/>
  <text x="862" y="150" fill="#F6D9BB" font-family="ui-sans-serif, -apple-system, BlinkMacSystemFont, 'Segoe UI', sans-serif" font-size="15" font-weight="700" letter-spacing="0.12em">LIVE HOST</text>

  <rect x="838" y="182" width="296" height="216" rx="62" fill="url(#card)"/>
  <path d="M932 254L1004 306L932 358" stroke="#FFF8EE" stroke-width="30" stroke-linecap="round" stroke-linejoin="round"/>
  <rect x="1032" y="288" width="78" height="30" rx="15" fill="#FFF8EE"/>
  <path d="M770 360C770 314.161 807.161 277 853 277H1119C1164.84 277 1202 314.161 1202 360V470C1202 515.839 1164.84 553 1119 553H853C807.161 553 770 515.839 770 470V360Z" fill="url(#pocket)"/>
  <path d="M836 348C893.333 312.667 950.667 295 1008 295C1065.33 295 1122.67 312.667 1180 348" stroke="#8A5A31" stroke-opacity="0.28" stroke-width="15" stroke-linecap="round"/>

  <rect x="838" y="430" width="120" height="34" rx="17" fill="#FFFFFF" fill-opacity="0.06" stroke="#FFFFFF" stroke-opacity="0.12"/>
  <text x="872" y="452" fill="#F6D9BB" font-family="ui-sans-serif, -apple-system, BlinkMacSystemFont, 'Segoe UI', sans-serif" font-size="15" font-weight="700" letter-spacing="0.1em">PAIRING</text>

  <rect x="972" y="430" width="112" height="34" rx="17" fill="#FFFFFF" fill-opacity="0.06" stroke="#FFFFFF" stroke-opacity="0.12"/>
  <text x="1007" y="452" fill="#FCE5CA" font-family="ui-sans-serif, -apple-system, BlinkMacSystemFont, 'Segoe UI', sans-serif" font-size="15" font-weight="700" letter-spacing="0.1em">DOCS</text>
</svg>
