<svg width="512" height="512" viewBox="0 0 512 512" fill="none" xmlns="http://www.w3.org/2000/svg">
  <rect width="512" height="512" fill="#101318"/>
  <circle cx="180" cy="168" r="188" fill="#C96C1C" fill-opacity="0.2"/>
  <circle cx="356" cy="360" r="164" fill="#5E2C0A" fill-opacity="0.18"/>

  <ellipse cx="256" cy="302" rx="150" ry="44" fill="#2C2019" fill-opacity="0.34"/>

  <rect x="164" y="76" width="184" height="246" rx="56" fill="#FF972F"/>
  <rect x="164" y="76" width="184" height="246" rx="56" stroke="#FFC56E" stroke-width="4"/>

  <path d="M208 150H246L298 198L246 246H208L260 198L208 150Z" fill="#FFF9F0"/>
  <rect x="302" y="220" width="52" height="24" rx="12" fill="#FFF9F0"/>

  <rect x="88" y="242" width="336" height="196" rx="96" fill="#F4E6D5"/>
  <rect x="88" y="242" width="336" height="196" rx="96" stroke="#FFF8EF" stroke-opacity="0.8" stroke-width="3"/>

  <path d="M122 246C147 224 195 214 256 214C317 214 365 224 390 246" stroke="#FFFDF7" stroke-opacity="0.88" stroke-width="8" stroke-linecap="round"/>
  <path d="M152 266C183 246 217 236 256 236C295 236 329 246 360 266" stroke="#A06A3D" stroke-opacity="0.32" stroke-width="10" stroke-linecap="round"/>
</svg>
